<mxfile host="app.diagrams.net" modified="2024-07-10T12:16:22.532Z" agent="Mozilla/5.0 (Macintosh; Intel Mac OS X 10_15_7) AppleWebKit/537.36 (KHTML, like Gecko) Chrome/126.0.0.0 Safari/537.36" etag="8xDbbuf4pzFmoVZW320o" version="24.6.4" type="device">
  <diagram name="Page-1" id="bWvsDkBucMhi-AtWMiRW">
    <mxGraphModel dx="717" dy="342" grid="1" gridSize="10" guides="1" tooltips="1" connect="1" arrows="1" fold="1" page="1" pageScale="1" pageWidth="850" pageHeight="1100" math="0" shadow="0">
      <root>
        <mxCell id="0" />
        <mxCell id="1" parent="0" />
        <mxCell id="um4fYCn7q_E2sx36lH5n-1" value="&lt;font&gt;RubyMine&lt;/font&gt;" style="rounded=0;whiteSpace=wrap;html=1;fontFamily=Montserrat;fontSource=https%3A%2F%2Ffonts.googleapis.com%2Fcss%3Ffamily%3DMontserrat;fontStyle=1" parent="1" vertex="1">
          <mxGeometry x="180" y="120" width="120" height="60" as="geometry" />
        </mxCell>
        <mxCell id="um4fYCn7q_E2sx36lH5n-2" value="Main&amp;nbsp;&lt;span style=&quot;background-color: initial;&quot;&gt;Debug Process&lt;/span&gt;" style="rounded=0;whiteSpace=wrap;html=1;fontFamily=Montserrat;fontSource=https%3A%2F%2Ffonts.googleapis.com%2Fcss%3Ffamily%3DMontserrat;fontStyle=1" parent="1" vertex="1">
          <mxGeometry x="348.49" y="120" width="120" height="60" as="geometry" />
        </mxCell>
        <mxCell id="um4fYCn7q_E2sx36lH5n-3" value="Child Debug Process" style="rounded=0;whiteSpace=wrap;html=1;fontFamily=Montserrat;fontSource=https%3A%2F%2Ffonts.googleapis.com%2Fcss%3Ffamily%3DMontserrat;fontStyle=1" parent="1" vertex="1">
          <mxGeometry x="520" y="120" width="120" height="60" as="geometry" />
        </mxCell>
        <mxCell id="um4fYCn7q_E2sx36lH5n-4" value="" style="endArrow=none;dashed=1;html=1;rounded=0;entryX=0.5;entryY=1;entryDx=0;entryDy=0;fontFamily=Montserrat;fontSource=https%3A%2F%2Ffonts.googleapis.com%2Fcss%3Ffamily%3DMontserrat;fontStyle=0" parent="1" source="um4fYCn7q_E2sx36lH5n-7" target="um4fYCn7q_E2sx36lH5n-1" edge="1">
          <mxGeometry width="50" height="50" relative="1" as="geometry">
            <mxPoint x="240" y="690" as="sourcePoint" />
            <mxPoint x="450" y="180" as="targetPoint" />
          </mxGeometry>
        </mxCell>
        <mxCell id="um4fYCn7q_E2sx36lH5n-5" value="" style="endArrow=none;dashed=1;html=1;rounded=0;entryX=0.5;entryY=1;entryDx=0;entryDy=0;fontFamily=Montserrat;fontSource=https%3A%2F%2Ffonts.googleapis.com%2Fcss%3Ffamily%3DMontserrat;fontStyle=0" parent="1" source="um4fYCn7q_E2sx36lH5n-10" edge="1">
          <mxGeometry width="50" height="50" relative="1" as="geometry">
            <mxPoint x="407.99" y="690" as="sourcePoint" />
            <mxPoint x="407.99" y="180" as="targetPoint" />
          </mxGeometry>
        </mxCell>
        <mxCell id="um4fYCn7q_E2sx36lH5n-6" value="" style="endArrow=none;dashed=1;html=1;rounded=0;entryX=0.5;entryY=1;entryDx=0;entryDy=0;fontFamily=Montserrat;fontSource=https%3A%2F%2Ffonts.googleapis.com%2Fcss%3Ffamily%3DMontserrat;fontStyle=0" parent="1" edge="1" target="um4fYCn7q_E2sx36lH5n-3" source="um4fYCn7q_E2sx36lH5n-22">
          <mxGeometry width="50" height="50" relative="1" as="geometry">
            <mxPoint x="579.5" y="680" as="sourcePoint" />
            <mxPoint x="550" y="200" as="targetPoint" />
          </mxGeometry>
        </mxCell>
        <mxCell id="um4fYCn7q_E2sx36lH5n-7" value="" style="rounded=0;whiteSpace=wrap;html=1;rotation=90;fontFamily=Montserrat;fontSource=https%3A%2F%2Ffonts.googleapis.com%2Fcss%3Ffamily%3DMontserrat;fontStyle=0" parent="1" vertex="1">
          <mxGeometry x="162.5" y="266.56" width="155" height="10" as="geometry" />
        </mxCell>
        <mxCell id="um4fYCn7q_E2sx36lH5n-10" value="" style="rounded=0;whiteSpace=wrap;html=1;rotation=90;fontFamily=Montserrat;fontSource=https%3A%2F%2Ffonts.googleapis.com%2Fcss%3Ffamily%3DMontserrat;fontStyle=0" parent="1" vertex="1">
          <mxGeometry x="338.51" y="274.99" width="140" height="10" as="geometry" />
        </mxCell>
        <mxCell id="um4fYCn7q_E2sx36lH5n-9" value="&lt;span style=&quot;background-color: rgb(255, 255, 255);&quot;&gt;Start main&lt;/span&gt;&lt;div&gt;&lt;span style=&quot;background-color: rgb(255, 255, 255);&quot;&gt;debug process&lt;/span&gt;&lt;/div&gt;" style="endArrow=open;html=1;rounded=0;endFill=0;entryX=0;entryY=1;entryDx=0;entryDy=0;exitX=0.103;exitY=-0.085;exitDx=0;exitDy=0;exitPerimeter=0;fontFamily=Montserrat;fontSource=https%3A%2F%2Ffonts.googleapis.com%2Fcss%3Ffamily%3DMontserrat;fontStyle=0;labelBackgroundColor=none;" parent="1" source="um4fYCn7q_E2sx36lH5n-7" target="um4fYCn7q_E2sx36lH5n-10" edge="1">
          <mxGeometry x="-0.0593" width="50" height="50" relative="1" as="geometry">
            <mxPoint x="250" y="210" as="sourcePoint" />
            <mxPoint x="390" y="210" as="targetPoint" />
            <mxPoint as="offset" />
          </mxGeometry>
        </mxCell>
        <mxCell id="um4fYCn7q_E2sx36lH5n-13" value="&lt;span style=&quot;background-color: rgb(255, 255, 255);&quot;&gt;Connect to&lt;/span&gt;&lt;div&gt;&lt;span style=&quot;background-color: rgb(255, 255, 255);&quot;&gt;predefined port&amp;nbsp;&lt;/span&gt;&lt;/div&gt;" style="endArrow=open;html=1;rounded=0;exitX=0.223;exitY=0.012;exitDx=0;exitDy=0;exitPerimeter=0;entryX=0.25;entryY=1;entryDx=0;entryDy=0;endFill=0;fontFamily=Montserrat;fontSource=https%3A%2F%2Ffonts.googleapis.com%2Fcss%3Ffamily%3DMontserrat;fontStyle=0;labelBackgroundColor=none;" parent="1" target="um4fYCn7q_E2sx36lH5n-10" edge="1">
          <mxGeometry width="50" height="50" relative="1" as="geometry">
            <mxPoint x="244.8800000000001" y="244.49" as="sourcePoint" />
            <mxPoint x="394.1899999999998" y="243.99972000000002" as="targetPoint" />
          </mxGeometry>
        </mxCell>
        <mxCell id="um4fYCn7q_E2sx36lH5n-21" value="&lt;span style=&quot;background-color: rgb(255, 255, 255);&quot;&gt;Start child&amp;nbsp;&lt;/span&gt;&lt;div&gt;&lt;span style=&quot;background-color: rgb(255, 255, 255);&quot;&gt;debug process&lt;/span&gt;&lt;/div&gt;" style="endArrow=open;html=1;rounded=0;endFill=0;entryX=0;entryY=1;entryDx=0;entryDy=0;fontFamily=Montserrat;fontSource=https%3A%2F%2Ffonts.googleapis.com%2Fcss%3Ffamily%3DMontserrat;fontStyle=0;labelBackgroundColor=none;exitX=0.413;exitY=-0.02;exitDx=0;exitDy=0;exitPerimeter=0;" parent="1" edge="1" target="um4fYCn7q_E2sx36lH5n-22" source="um4fYCn7q_E2sx36lH5n-10">
          <mxGeometry width="50" height="50" relative="1" as="geometry">
            <mxPoint x="430" y="260" as="sourcePoint" />
            <mxPoint x="550" y="260" as="targetPoint" />
          </mxGeometry>
        </mxCell>
        <mxCell id="um4fYCn7q_E2sx36lH5n-25" value="&lt;span style=&quot;background-color: rgb(255, 255, 255);&quot;&gt;Send connection port&lt;/span&gt;" style="endArrow=open;html=1;rounded=0;entryX=0.602;entryY=0.08;entryDx=0;entryDy=0;entryPerimeter=0;endFill=0;fontFamily=Montserrat;fontSource=https%3A%2F%2Ffonts.googleapis.com%2Fcss%3Ffamily%3DMontserrat;fontStyle=0;labelBackgroundColor=none;exitX=0.25;exitY=1;exitDx=0;exitDy=0;" parent="1" edge="1">
          <mxGeometry width="50" height="50" relative="1" as="geometry">
            <mxPoint x="575.0050000000001" y="299.47249999999997" as="sourcePoint" />
            <mxPoint x="245.10999999999993" y="300.9999999999999" as="targetPoint" />
          </mxGeometry>
        </mxCell>
        <mxCell id="um4fYCn7q_E2sx36lH5n-26" value="&lt;span style=&quot;background-color: rgb(255, 255, 255);&quot;&gt;Connect to received port&lt;/span&gt;" style="endArrow=open;html=1;rounded=0;entryX=0.601;entryY=1.05;entryDx=0;entryDy=0;entryPerimeter=0;endFill=0;fontFamily=Montserrat;fontSource=https%3A%2F%2Ffonts.googleapis.com%2Fcss%3Ffamily%3DMontserrat;fontStyle=0;labelBackgroundColor=none;" parent="1" edge="1">
          <mxGeometry width="50" height="50" relative="1" as="geometry">
            <mxPoint x="245" y="328" as="sourcePoint" />
            <mxPoint x="574.5050000000003" y="325.16675" as="targetPoint" />
          </mxGeometry>
        </mxCell>
        <mxCell id="um4fYCn7q_E2sx36lH5n-22" value="" style="rounded=0;whiteSpace=wrap;html=1;rotation=90;fontFamily=Montserrat;fontSource=https%3A%2F%2Ffonts.googleapis.com%2Fcss%3Ffamily%3DMontserrat;fontStyle=0" parent="1" vertex="1">
          <mxGeometry x="539.13" y="303.91" width="81.75" height="10" as="geometry" />
        </mxCell>
      </root>
    </mxGraphModel>
  </diagram>
</mxfile>
